<mxfile host="app.diagrams.net" modified="2024-02-22T07:32:41.437Z" agent="Mozilla/5.0 (Macintosh; Intel Mac OS X 10_15_7) AppleWebKit/537.36 (KHTML, like Gecko) Chrome/121.0.0.0 Safari/537.36" etag="8Es839vVuHmjBqSLsJha" version="22.1.16" type="github">
  <diagram name="第 1 页" id="5GNiGWmQjNPo6vlQBlPY">
    <mxGraphModel dx="1434" dy="711" grid="1" gridSize="10" guides="1" tooltips="1" connect="1" arrows="1" fold="1" page="1" pageScale="1" pageWidth="1654" pageHeight="1169" math="0" shadow="0">
      <root>
        <mxCell id="0" />
        <mxCell id="1" parent="0" />
        <mxCell id="qaMz0uKa1ruEt6D6BGLW-2" value="订阅类型为非标准版时，直接关联权限" style="text;html=1;resizable=0;autosize=1;align=center;verticalAlign=middle;points=[];fillColor=none;strokeColor=none;rounded=0;" vertex="1" parent="1">
          <mxGeometry x="730" y="595" width="230" height="30" as="geometry" />
        </mxCell>
        <mxCell id="qaMz0uKa1ruEt6D6BGLW-7" value="feature" style="swimlane;childLayout=stackLayout;horizontal=1;startSize=30;horizontalStack=0;rounded=1;fontSize=14;fontStyle=0;strokeWidth=2;resizeParent=0;resizeLast=1;shadow=0;dashed=0;align=center;" vertex="1" parent="1">
          <mxGeometry x="635" y="400" width="205" height="120" as="geometry" />
        </mxCell>
        <mxCell id="qaMz0uKa1ruEt6D6BGLW-8" value="+feature_code&#xa;+feature_type&#xa;+parent_feature_code&#xa;" style="align=left;strokeColor=none;fillColor=none;spacingLeft=4;fontSize=12;verticalAlign=top;resizable=0;rotatable=0;part=1;" vertex="1" parent="qaMz0uKa1ruEt6D6BGLW-7">
          <mxGeometry y="30" width="205" height="90" as="geometry" />
        </mxCell>
        <mxCell id="qaMz0uKa1ruEt6D6BGLW-9" value="role_feature" style="swimlane;childLayout=stackLayout;horizontal=1;startSize=30;horizontalStack=0;rounded=1;fontSize=14;fontStyle=0;strokeWidth=2;resizeParent=0;resizeLast=1;shadow=0;dashed=0;align=center;" vertex="1" parent="1">
          <mxGeometry x="497.5" y="550" width="160" height="120" as="geometry" />
        </mxCell>
        <mxCell id="qaMz0uKa1ruEt6D6BGLW-10" value="+id&#xa;+role_id&#xa;+feature_id" style="align=left;strokeColor=none;fillColor=none;spacingLeft=4;fontSize=12;verticalAlign=top;resizable=0;rotatable=0;part=1;" vertex="1" parent="qaMz0uKa1ruEt6D6BGLW-9">
          <mxGeometry y="30" width="160" height="90" as="geometry" />
        </mxCell>
        <mxCell id="qaMz0uKa1ruEt6D6BGLW-11" style="edgeStyle=orthogonalEdgeStyle;rounded=0;orthogonalLoop=1;jettySize=auto;html=1;entryX=0;entryY=0.5;entryDx=0;entryDy=0;endArrow=none;" edge="1" parent="1" source="qaMz0uKa1ruEt6D6BGLW-12" target="qaMz0uKa1ruEt6D6BGLW-9">
          <mxGeometry relative="1" as="geometry" />
        </mxCell>
        <mxCell id="qaMz0uKa1ruEt6D6BGLW-12" value="company_custom_role" style="swimlane;childLayout=stackLayout;horizontal=1;startSize=30;horizontalStack=0;rounded=1;fontSize=14;fontStyle=0;strokeWidth=2;resizeParent=0;resizeLast=1;shadow=0;dashed=0;align=center;" vertex="1" parent="1">
          <mxGeometry x="285" y="552.5" width="170" height="115" as="geometry" />
        </mxCell>
        <mxCell id="qaMz0uKa1ruEt6D6BGLW-13" value="+role_id&#xa;+company_id" style="align=left;strokeColor=none;fillColor=none;spacingLeft=4;fontSize=12;verticalAlign=top;resizable=0;rotatable=0;part=1;" vertex="1" parent="qaMz0uKa1ruEt6D6BGLW-12">
          <mxGeometry y="30" width="170" height="85" as="geometry" />
        </mxCell>
        <mxCell id="qaMz0uKa1ruEt6D6BGLW-14" style="edgeStyle=orthogonalEdgeStyle;rounded=0;orthogonalLoop=1;jettySize=auto;html=1;entryX=0;entryY=0.333;entryDx=0;entryDy=0;entryPerimeter=0;endArrow=none;" edge="1" parent="1" source="qaMz0uKa1ruEt6D6BGLW-15" target="qaMz0uKa1ruEt6D6BGLW-28">
          <mxGeometry relative="1" as="geometry" />
        </mxCell>
        <mxCell id="qaMz0uKa1ruEt6D6BGLW-15" value="company_user_role" style="swimlane;childLayout=stackLayout;horizontal=1;startSize=30;horizontalStack=0;rounded=1;fontSize=14;fontStyle=0;strokeWidth=2;resizeParent=0;resizeLast=1;shadow=0;dashed=0;align=center;" vertex="1" parent="1">
          <mxGeometry x="290" y="870" width="160" height="120" as="geometry" />
        </mxCell>
        <mxCell id="qaMz0uKa1ruEt6D6BGLW-16" value="+id&#xa;+user_id&#xa;+role_id" style="align=left;strokeColor=none;fillColor=none;spacingLeft=4;fontSize=12;verticalAlign=top;resizable=0;rotatable=0;part=1;" vertex="1" parent="qaMz0uKa1ruEt6D6BGLW-15">
          <mxGeometry y="30" width="160" height="90" as="geometry" />
        </mxCell>
        <mxCell id="qaMz0uKa1ruEt6D6BGLW-17" value="company_subscription_feature" style="swimlane;childLayout=stackLayout;horizontal=1;startSize=30;horizontalStack=0;rounded=1;fontSize=14;fontStyle=0;strokeWidth=2;resizeParent=0;resizeLast=1;shadow=0;dashed=0;align=center;" vertex="1" parent="1">
          <mxGeometry x="583.13" y="690" width="308.75" height="120" as="geometry" />
        </mxCell>
        <mxCell id="qaMz0uKa1ruEt6D6BGLW-18" value="+company_subscription_feature_id&#xa;+company_subscription_id&#xa;+feature_id" style="align=left;strokeColor=none;fillColor=none;spacingLeft=4;fontSize=12;verticalAlign=top;resizable=0;rotatable=0;part=1;" vertex="1" parent="qaMz0uKa1ruEt6D6BGLW-17">
          <mxGeometry y="30" width="308.75" height="90" as="geometry" />
        </mxCell>
        <mxCell id="qaMz0uKa1ruEt6D6BGLW-24" style="edgeStyle=orthogonalEdgeStyle;rounded=0;orthogonalLoop=1;jettySize=auto;html=1;entryX=0.5;entryY=0;entryDx=0;entryDy=0;endArrow=none;" edge="1" parent="1" source="qaMz0uKa1ruEt6D6BGLW-8" target="qaMz0uKa1ruEt6D6BGLW-17">
          <mxGeometry relative="1" as="geometry" />
        </mxCell>
        <mxCell id="qaMz0uKa1ruEt6D6BGLW-25" style="edgeStyle=orthogonalEdgeStyle;rounded=0;orthogonalLoop=1;jettySize=auto;html=1;endArrow=none;" edge="1" parent="1" source="qaMz0uKa1ruEt6D6BGLW-8">
          <mxGeometry relative="1" as="geometry">
            <mxPoint x="560" y="550" as="targetPoint" />
          </mxGeometry>
        </mxCell>
        <mxCell id="qaMz0uKa1ruEt6D6BGLW-26" style="edgeStyle=orthogonalEdgeStyle;rounded=0;orthogonalLoop=1;jettySize=auto;html=1;entryX=0;entryY=0.5;entryDx=0;entryDy=0;endArrow=none;" edge="1" parent="1" source="qaMz0uKa1ruEt6D6BGLW-27" target="qaMz0uKa1ruEt6D6BGLW-32">
          <mxGeometry relative="1" as="geometry" />
        </mxCell>
        <mxCell id="qaMz0uKa1ruEt6D6BGLW-27" value="company_user" style="swimlane;childLayout=stackLayout;horizontal=1;startSize=30;horizontalStack=0;rounded=1;fontSize=14;fontStyle=0;strokeWidth=2;resizeParent=0;resizeLast=1;shadow=0;dashed=0;align=center;" vertex="1" parent="1">
          <mxGeometry x="620" y="870" width="160" height="120" as="geometry" />
        </mxCell>
        <mxCell id="qaMz0uKa1ruEt6D6BGLW-28" value="+user_id&#xa;+company_id&#xa;" style="align=left;strokeColor=none;fillColor=none;spacingLeft=4;fontSize=12;verticalAlign=top;resizable=0;rotatable=0;part=1;" vertex="1" parent="qaMz0uKa1ruEt6D6BGLW-27">
          <mxGeometry y="30" width="160" height="90" as="geometry" />
        </mxCell>
        <mxCell id="qaMz0uKa1ruEt6D6BGLW-29" style="edgeStyle=orthogonalEdgeStyle;rounded=0;orthogonalLoop=1;jettySize=auto;html=1;entryX=1;entryY=0.333;entryDx=0;entryDy=0;entryPerimeter=0;endArrow=none;" edge="1" parent="1" source="qaMz0uKa1ruEt6D6BGLW-30" target="qaMz0uKa1ruEt6D6BGLW-33">
          <mxGeometry relative="1" as="geometry" />
        </mxCell>
        <mxCell id="qaMz0uKa1ruEt6D6BGLW-30" value="company_subscription_modification_request" style="swimlane;childLayout=stackLayout;horizontal=1;startSize=30;horizontalStack=0;rounded=1;fontSize=14;fontStyle=0;strokeWidth=2;resizeParent=0;resizeLast=1;shadow=0;dashed=0;align=center;" vertex="1" parent="1">
          <mxGeometry x="1270" y="870" width="340" height="120" as="geometry" />
        </mxCell>
        <mxCell id="qaMz0uKa1ruEt6D6BGLW-31" value="+company_subscription_modification_request_id&#xa; " style="align=left;strokeColor=none;fillColor=none;spacingLeft=4;fontSize=12;verticalAlign=top;resizable=0;rotatable=0;part=1;" vertex="1" parent="qaMz0uKa1ruEt6D6BGLW-30">
          <mxGeometry y="30" width="340" height="90" as="geometry" />
        </mxCell>
        <mxCell id="qaMz0uKa1ruEt6D6BGLW-32" value="company" style="swimlane;childLayout=stackLayout;horizontal=1;startSize=30;horizontalStack=0;rounded=1;fontSize=14;fontStyle=0;strokeWidth=2;resizeParent=0;resizeLast=1;shadow=0;dashed=0;align=center;" vertex="1" parent="1">
          <mxGeometry x="950" y="870" width="160" height="120" as="geometry" />
        </mxCell>
        <mxCell id="qaMz0uKa1ruEt6D6BGLW-33" value="+company id" style="align=left;strokeColor=none;fillColor=none;spacingLeft=4;fontSize=12;verticalAlign=top;resizable=0;rotatable=0;part=1;" vertex="1" parent="qaMz0uKa1ruEt6D6BGLW-32">
          <mxGeometry y="30" width="160" height="90" as="geometry" />
        </mxCell>
        <mxCell id="qaMz0uKa1ruEt6D6BGLW-34" style="edgeStyle=orthogonalEdgeStyle;rounded=0;orthogonalLoop=1;jettySize=auto;html=1;endArrow=none;" edge="1" parent="1" source="qaMz0uKa1ruEt6D6BGLW-36">
          <mxGeometry relative="1" as="geometry">
            <mxPoint x="890" y="750" as="targetPoint" />
          </mxGeometry>
        </mxCell>
        <mxCell id="qaMz0uKa1ruEt6D6BGLW-36" value="company_subscription" style="swimlane;childLayout=stackLayout;horizontal=1;startSize=30;horizontalStack=0;rounded=1;fontSize=14;fontStyle=0;strokeWidth=2;resizeParent=0;resizeLast=1;shadow=0;dashed=0;align=center;" vertex="1" parent="1">
          <mxGeometry x="940" y="690" width="200" height="120" as="geometry" />
        </mxCell>
        <mxCell id="qaMz0uKa1ruEt6D6BGLW-37" value="+company_subscription_id&#xa;+belong_company_id&#xa;+company_subscription_type&#xa;+template_id" style="align=left;strokeColor=none;fillColor=none;spacingLeft=4;fontSize=12;verticalAlign=top;resizable=0;rotatable=0;part=1;" vertex="1" parent="qaMz0uKa1ruEt6D6BGLW-36">
          <mxGeometry y="30" width="200" height="90" as="geometry" />
        </mxCell>
        <mxCell id="qaMz0uKa1ruEt6D6BGLW-38" style="edgeStyle=orthogonalEdgeStyle;rounded=0;orthogonalLoop=1;jettySize=auto;html=1;entryX=0.563;entryY=-0.017;entryDx=0;entryDy=0;entryPerimeter=0;endArrow=none;" edge="1" parent="1" source="qaMz0uKa1ruEt6D6BGLW-37" target="qaMz0uKa1ruEt6D6BGLW-32">
          <mxGeometry relative="1" as="geometry" />
        </mxCell>
        <mxCell id="qaMz0uKa1ruEt6D6BGLW-40" style="edgeStyle=orthogonalEdgeStyle;rounded=0;orthogonalLoop=1;jettySize=auto;html=1;exitX=0.5;exitY=1;exitDx=0;exitDy=0;entryX=0.5;entryY=0;entryDx=0;entryDy=0;endArrow=none;" edge="1" parent="1" source="qaMz0uKa1ruEt6D6BGLW-13" target="qaMz0uKa1ruEt6D6BGLW-15">
          <mxGeometry relative="1" as="geometry" />
        </mxCell>
        <mxCell id="qaMz0uKa1ruEt6D6BGLW-45" value="公司自定义角色" style="edgeLabel;html=1;align=center;verticalAlign=middle;resizable=0;points=[];" vertex="1" connectable="0" parent="qaMz0uKa1ruEt6D6BGLW-40">
          <mxGeometry x="-0.0963" y="4" relative="1" as="geometry">
            <mxPoint y="1" as="offset" />
          </mxGeometry>
        </mxCell>
        <mxCell id="qaMz0uKa1ruEt6D6BGLW-41" value="" style="endArrow=none;dashed=1;html=1;dashPattern=1 3;strokeWidth=2;rounded=0;exitX=1;exitY=1;exitDx=0;exitDy=0;entryX=-0.015;entryY=0.133;entryDx=0;entryDy=0;entryPerimeter=0;" edge="1" parent="1" source="qaMz0uKa1ruEt6D6BGLW-37" target="qaMz0uKa1ruEt6D6BGLW-30">
          <mxGeometry width="50" height="50" relative="1" as="geometry">
            <mxPoint x="1160" y="810" as="sourcePoint" />
            <mxPoint x="1200" y="860" as="targetPoint" />
          </mxGeometry>
        </mxCell>
        <mxCell id="qaMz0uKa1ruEt6D6BGLW-42" value="人工审核后，生成公司订阅信息" style="text;html=1;resizable=0;autosize=1;align=center;verticalAlign=middle;points=[];fillColor=none;strokeColor=none;rounded=0;" vertex="1" parent="1">
          <mxGeometry x="1175" y="800" width="190" height="30" as="geometry" />
        </mxCell>
        <mxCell id="qaMz0uKa1ruEt6D6BGLW-43" value="公司发起订阅申请&lt;br&gt;生成一条公司订阅申请信息" style="text;html=1;resizable=0;autosize=1;align=center;verticalAlign=middle;points=[];fillColor=none;strokeColor=none;rounded=0;" vertex="1" parent="1">
          <mxGeometry x="1100" y="910" width="170" height="40" as="geometry" />
        </mxCell>
        <mxCell id="qaMz0uKa1ruEt6D6BGLW-44" style="edgeStyle=orthogonalEdgeStyle;rounded=0;orthogonalLoop=1;jettySize=auto;html=1;exitX=0;exitY=0.5;exitDx=0;exitDy=0;entryX=0;entryY=0.25;entryDx=0;entryDy=0;endArrow=none;" edge="1" parent="1" source="qaMz0uKa1ruEt6D6BGLW-16" target="qaMz0uKa1ruEt6D6BGLW-7">
          <mxGeometry relative="1" as="geometry">
            <Array as="points">
              <mxPoint x="230" y="945" />
              <mxPoint x="230" y="450" />
              <mxPoint x="635" y="450" />
            </Array>
          </mxGeometry>
        </mxCell>
        <mxCell id="qaMz0uKa1ruEt6D6BGLW-46" value="ref表中的标准角色&lt;br&gt;后端代码中定义关联的权限" style="edgeLabel;html=1;align=center;verticalAlign=middle;resizable=0;points=[];" vertex="1" connectable="0" parent="qaMz0uKa1ruEt6D6BGLW-44">
          <mxGeometry x="-0.6043" relative="1" as="geometry">
            <mxPoint as="offset" />
          </mxGeometry>
        </mxCell>
      </root>
    </mxGraphModel>
  </diagram>
</mxfile>
